# xmcd CD database file
#
# Track frame offsets:
#	150
#	14692
#	35723
#	48648
#	69507
#	85775
#	99256
#	122584
#	138768
#	156877
#	171626
#	192293
#	210428
#	233266
#	251805
#
# Disc length: 3573 seconds
#
# Revision: 0
# Processed by: cddbd v1.5.2PL0 Copyright (c) Steve Scherf et al.
# Submitted via: CDex 1.70beta2
#
DISCID=c90df30f
DTITLE=Midnight Serenaders - Magnolia
DYEAR=2007
DGENRE=Jazz
TTITLE0=(Lookie Lookie Lookie) Here Comes Cookie
TTITLE1=A Porter's Lovesong to a Chambermaid
TTITLE2=How'm I Doin'
TTITLE3=I Must Have That Man
TTITLE4=What Makes Me Love You So
TTITLE5=My Carolina Sunshine Girl
TTITLE6=My Handyman
TTITLE7=Magnolia
TTITLE8=Sand
TTITLE9=The Word's Jazz Crazy
TTITLE10=Lazybones
TTITLE11=You Got To Give Me Some
TTITLE12=Dirt Dishin' Daisy
TTITLE13=Six Feet of Papa
TTITLE14=Everybody Loves My Baby
EXTD=YEAR: 2007
EXTT0=
EXTT1=
EXTT2=
EXTT3=
EXTT4=
EXTT5=
EXTT6=
EXTT7=
EXTT8=
EXTT9=
EXTT10=
EXTT11=
EXTT12=
EXTT13=
EXTT14=
PLAYORDER=
